<?xml version="1.0" encoding="utf-8"?>
<!-- Generator: Adobe Illustrator 19.0.0, SVG Export Plug-In . SVG Version: 6.00 Build 0)  -->
<svg version="1.1" id="Layer_1" xmlns="http://www.w3.org/2000/svg" xmlns:xlink="http://www.w3.org/1999/xlink" x="0px" y="0px"
	 viewBox="179 371.7 255 47.3" style="enable-background:new 179 371.7 255 47.3;" xml:space="preserve">
<style type="text/css">
	path, polygon,rect{
	fill:#fff;
	}
	.st0{fill:#fff;}
	.st1{fill:none;stroke:#fff;stroke-width:3;stroke-linecap:round;stroke-linejoin:round;stroke-miterlimit:10;}
	.st2{fill:none;stroke:#fff;stroke-width:3.75;stroke-linecap:round;stroke-linejoin:round;stroke-miterlimit:10;}
</style>
<g>
	<path d="M246.7,400.8c1.6-1.5,2.4-3.4,2.4-5.6c0-1.4-0.3-2.7-1-3.9c-0.7-1.2-1.6-2.1-2.8-2.8c-1.2-0.7-2.5-1-3.8-1
		c-1.4,0-2.6,0.3-3.8,1s-2.1,1.6-2.8,2.8c-0.7,1.2-1,2.5-1,3.9c0,2.1,0.7,3.9,2.2,5.4s3.3,2.2,5.4,2.2c1.4,0,2.7-0.3,3.9-1l-4-5.1
		h2.2L246.7,400.8z M247.8,402.2l2.7,3.4h-2.2l-1.8-2.3c-1.5,0.9-3.1,1.4-5,1.4c-2.7,0-4.9-0.9-6.8-2.7c-1.8-1.8-2.8-4-2.8-6.6
		c0-1.7,0.4-3.3,1.3-4.8c0.9-1.5,2-2.6,3.4-3.5c1.4-0.8,3-1.2,4.8-1.2c2.7,0,4.9,0.9,6.8,2.7s2.8,4,2.8,6.7c0,1.4-0.3,2.6-0.8,3.8
		C249.6,400.1,248.9,401.2,247.8,402.2z"/>
	<path class="st0" d="M256.7,395.5h0.9c0.7,0,1.2,0,1.4-0.1c0.3-0.1,0.5-0.3,0.6-0.5s0.2-0.5,0.2-0.8c0-0.5-0.2-1-0.6-1.2
		c-0.3-0.2-0.9-0.3-1.7-0.3h-0.8V395.5z M254,389.9h2.9c1.6,0,2.7,0.1,3.4,0.4c0.7,0.3,1.2,0.8,1.6,1.4s0.6,1.4,0.6,2.3
		c0,1-0.3,1.8-0.8,2.5s-1.2,1.1-2.1,1.4c-0.5,0.1-1.5,0.2-2.9,0.2v6H254V389.9z"/>
	<polygon class="st0" points="265.1,389.9 272.9,389.9 272.9,392.5 267.8,392.5 267.8,395.1 272.9,395.1 272.9,397.7 267.8,397.7 
		267.8,401.5 272.9,401.5 272.9,404.1 265.1,404.1 	"/>
	<path class="st0" d="M278.4,395.5h0.9c0.9,0,1.5-0.1,1.8-0.3c0.3-0.2,0.5-0.6,0.5-1.1c0-0.3-0.1-0.6-0.2-0.8s-0.4-0.4-0.7-0.5
		c-0.3-0.1-0.8-0.1-1.5-0.1h-0.7L278.4,395.5L278.4,395.5z M275.6,389.9h2.9c1.6,0,2.7,0.1,3.4,0.4c0.7,0.3,1.2,0.8,1.6,1.4
		s0.6,1.4,0.6,2.3s-0.2,1.7-0.7,2.4c-0.4,0.6-1.1,1.1-2,1.4l3.4,6.3h-3l-3.2-6h-0.2v6h-2.7L275.6,389.9L275.6,389.9z"/>
	<path class="st0" d="M294.5,391.8l-2,1.8c-0.7-1-1.4-1.5-2.2-1.5c-0.4,0-0.6,0.1-0.9,0.3c-0.2,0.2-0.3,0.4-0.3,0.6s0.1,0.5,0.2,0.7
		c0.2,0.3,0.9,0.9,2,1.8c1,0.9,1.7,1.4,1.9,1.6c0.5,0.6,0.9,1.1,1.2,1.6c0.2,0.5,0.4,1.1,0.4,1.7c0,1.2-0.4,2.1-1.2,2.9
		s-1.9,1.1-3.2,1.1c-1,0-1.9-0.2-2.6-0.7c-0.8-0.5-1.4-1.3-1.9-2.3l2.3-1.4c0.7,1.3,1.5,1.9,2.4,1.9c0.5,0,0.9-0.1,1.2-0.4
		c0.3-0.3,0.5-0.6,0.5-0.9s-0.1-0.6-0.4-1c-0.2-0.3-0.8-0.8-1.6-1.5c-1.6-1.3-2.6-2.2-3-2.9c-0.4-0.7-0.7-1.4-0.7-2.1
		c0-1,0.4-1.8,1.1-2.5c0.8-0.7,1.7-1.1,2.8-1.1c0.7,0,1.4,0.2,2,0.5C293,390.4,293.7,391,294.5,391.8z"/>
	<path class="st0" d="M304,392.2c-1.3,0-2.4,0.4-3.3,1.4c-0.9,0.9-1.4,2.1-1.4,3.5c0,1.6,0.6,2.8,1.7,3.7c0.9,0.7,1.9,1.1,3,1.1
		c1.3,0,2.4-0.5,3.3-1.4s1.4-2.1,1.4-3.4c0-1.4-0.5-2.5-1.4-3.4S305.3,392.2,304,392.2z M304,389.5c2,0,3.8,0.7,5.2,2.2
		c1.4,1.5,2.2,3.2,2.2,5.3c0,2.1-0.7,3.8-2.1,5.3c-1.4,1.4-3.2,2.2-5.2,2.2c-2.1,0-3.9-0.7-5.4-2.2c-1.4-1.5-2.1-3.2-2.1-5.3
		c0-1.4,0.3-2.6,1-3.8c0.7-1.1,1.6-2.1,2.7-2.7C301.5,389.9,302.7,389.5,304,389.5z"/>
	<polygon class="st0" points="314,389.9 316.6,389.9 322.7,399.3 322.7,389.9 325.4,389.9 325.4,404.1 322.8,404.1 316.7,394.8 
		316.7,404.1 314,404.1 	"/>
	<path class="st0" d="M334.5,393.7l-1.9,4.9h3.8L334.5,393.7z M333,389.9h2.8l5.5,14.2h-2.8l-1.1-2.9h-5.8l-1.2,2.9h-2.8L333,389.9z
		"/>
	<polygon class="st0" points="343.4,389.9 346.1,389.9 346.1,401.5 350.1,401.5 350.1,404.1 343.4,404.1 	"/>
	<polygon points="350.8,391.3 350.8,389.9 358.6,389.9 358.6,391.3 355.5,391.3 355.5,404.1 354,404.1 354,391.3 	"/>
	<path d="M362.2,391.3v4.8h2.5c0.9,0,1.7-0.1,2.1-0.3c0.4-0.2,0.8-0.5,1.1-0.9c0.3-0.4,0.4-0.8,0.4-1.3s-0.1-0.9-0.4-1.3
		s-0.6-0.7-1-0.8c-0.4-0.2-1.1-0.3-2.1-0.3L362.2,391.3L362.2,391.3z M360.8,389.9h2.8c1.6,0,2.7,0.1,3.2,0.2
		c0.9,0.2,1.5,0.6,2.1,1.2c0.5,0.6,0.8,1.4,0.8,2.4c0,0.8-0.2,1.5-0.5,2c-0.4,0.6-0.9,1-1.6,1.3s-1.6,0.5-2.8,0.5l5.1,6.6h-1.8
		l-5.1-6.6h-0.8v6.6h-1.4L360.8,389.9L360.8,389.9z"/>
	<path d="M378.4,392.9L376,398h4.9L378.4,392.9z M378.6,389.9l6.7,14.2h-1.5l-2.3-4.7h-6.1l-2.2,4.7h-1.6l6.7-14.2H378.6z"/>
	<rect x="387.3" y="389.9" width="1.4" height="14.2"/>
	<polygon points="392,404.1 392,389.9 392.3,389.9 401.8,400.8 401.8,389.9 403.2,389.9 403.2,404.1 402.9,404.1 393.5,393.4 
		393.5,404.1 	"/>
	<polygon points="406.7,389.9 414.9,389.9 414.9,391.3 408.1,391.3 408.1,395.8 414.8,395.8 414.8,397.1 408.1,397.1 408.1,402.7 
		414.8,402.7 414.8,404.1 406.7,404.1 	"/>
	<path d="M418.8,391.3v4.8h2.5c1,0,1.7-0.1,2.1-0.3c0.5-0.2,0.8-0.5,1.1-0.9c0.3-0.4,0.4-0.8,0.4-1.3s-0.1-0.9-0.4-1.3
		s-0.6-0.7-1-0.8c-0.4-0.2-1.1-0.3-2.1-0.3L418.8,391.3L418.8,391.3z M417.4,389.9h2.8c1.6,0,2.7,0.1,3.2,0.2
		c0.9,0.2,1.5,0.6,2.1,1.2c0.5,0.6,0.8,1.4,0.8,2.4c0,0.8-0.2,1.5-0.5,2c-0.4,0.6-0.9,1-1.6,1.3s-1.6,0.5-2.8,0.5l5.1,6.6h-1.8
		l-5.1-6.6h-0.8v6.6h-1.4L417.4,389.9L417.4,389.9z"/>
	<polygon points="421.2,378.4 421.2,377.8 424.5,377.8 424.5,378.4 423.2,378.4 423.2,383.9 422.6,383.9 422.6,378.4 	"/>
	<polygon points="425.1,383.9 426,377.8 426.1,377.8 428.6,382.8 431,377.8 431.1,377.8 432,383.9 431.4,383.9 430.8,379.5 
		428.6,383.9 428.5,383.9 426.3,379.5 425.7,383.9 	"/>
	<path class="st1" d="M190.7,395.4c0-6.9,5.6-12.4,12.5-12.4s12.5,5.6,12.5,12.4c0,6.9-5.6,12.4-12.5,12.4
		C196.3,407.9,190.7,402.3,190.7,395.4z"/>
	<polygon class="st0" points="190.8,395.1 220.4,410.1 191.1,399.7 	"/>
	<path class="st2" d="M182.1,395.4c0-11.6,9.4-21,21.1-21c11.7,0,21.1,9.4,21.1,21s-9.4,21-21.1,21
		C191.6,416.4,182.1,407,182.1,395.4z"/>
</g>
</svg>
